<svg xmlns="http://www.w3.org/2000/svg" width="960" height="360" viewBox="0 0 960 360" role="img" aria-labelledby="title desc">
  <title id="title">@8=F8? M;5:B@>45384@0B>@0</title><desc id="desc">5DBO=0O, M<C;LA8>==0O 8 2>4=0O 7>=K, M;5:B@>4K, 2E>4 M<C;LA88 8 >B2>4 @0AA>;0.</desc>
  <rect width="960" height="360" rx="22" fill="#0b2234"/>
  <g font-family="Arial, sans-serif"><text x="480" y="35" text-anchor="middle" font-size="18" font-weight="700" fill="#edf7fc">@8=F8?80;L=0O AE5<0 M;5:B@>45384@0B>@0</text>
    <rect x="205" y="70" width="550" height="235" rx="78" fill="#102f45" stroke="#466b82" stroke-width="3"/>
    <path d="M208 210h544v28H208z" fill="#b68845" opacity=".78"/><path d="M230 238h500v45H230z" fill="#317da5" opacity=".9"/>
    <g stroke="#38b7ee" stroke-width="5"><path d="M305 112h350"/><path d="M305 160h350"/></g><g stroke="#38b7ee" stroke-width="2"><path d="M340 112v48M420 112v48M500 112v48M580 112v48M640 112v48"/></g>
    <g fill="#55bfea"><circle cx="330" cy="195" r="6"/><circle cx="385" cy="202" r="9"/><circle cx="470" cy="190" r="5"/><circle cx="545" cy="198" r="11"/><circle cx="630" cy="192" r="7"/></g>
    <path d="M75 195h130" stroke="#38b7ee" stroke-width="4"/><path d="m205 195-12-7v14z" fill="#38b7ee"/><path d="M480 305v36" stroke="#38b7ee" stroke-width="4"/><path d="m480 341-7-12h14z" fill="#38b7ee"/>
    <g fill="#edf7fc" font-size="12"><text x="80" y="180">M<C;LA8O:</text><text x="80" y="198">=5DBL + 2>40</text><text x="675" y="105">M;5:B@>4K</text><text x="675" y="226">M<C;LA8>==K9 A;>9</text><text x="675" y="266">2>4=0O D070</text><text x="500" y="344">@0AA>;</text></g>
    <text x="480" y="325" text-anchor="middle" font-size="10" fill="#a7c2d2">C@>25=L 3@0=8FK 8 4@5=06 7040NBAO @53;0<5=B>< :>=:@5B=>3> 0??0@0B0</text>
  </g>
</svg>
